# xmcd CD database file
#
# Track frame offsets:
#	150
#	15788
#	27071
#	40944
#	57575
#	72725
#	88697
#	101173
#	118630
#	128510
#	147299
#	159355
#	173049
#	183795
#	196245
#	206589
#	218960
#	231571
#	245113
#	257497
#	270061
#	285621
#	299277
#
# Disc length: 4151 seconds
#
# Revision: 0
# Processed by: cddbd v1.5.2PL0 Copyright (c) Steve Scherf et al.
# Submitted via: ACXtractor (MTCDDB.DLL V2003.07.15)
#
DISCID=4c103517
DTITLE=Terry Gordon - 50 country classics
DYEAR=2006
DGENRE=Country
TTITLE0=Dance with Me
TTITLE1=The Same way you come In
TTITLE2=I Knew this Day would Come
TTITLE3=Dubbo to San Antone
TTITLE4=Never Been West of Strathfield
TTITLE5=Givin' the Lizard a Run
TTITLE6=Greyhound Blues
TTITLE7=Just Thank Me
TTITLE8=Give her One for Christmas
TTITLE9=Livin' on the Road
TTITLE10=Old Frank
TTITLE11=The Champ
TTITLE12=Bullocky Bill
TTITLE13=Inside a Womans Handbag
TTITLE14=The Ballad of Terry Gordon
TTITLE15=Click Goes the Shears
TTITLE16=Joe the Crow from McGuires Pub
TTITLE17=I'm allergic to Yakka Old Mate
TTITLE18=Shorty's Famous Ride
TTITLE19=Scobies Hangover
TTITLE20=The Mighty Superscrew
TTITLE21=A Tale of Jack and Jill
TTITLE22=the Man from Humpty Doo
EXTD=ID3G:   2 YEAR: 2006
EXTT0=
EXTT1=
EXTT2=
EXTT3=
EXTT4=
EXTT5=
EXTT6=
EXTT7=
EXTT8=
EXTT9=
EXTT10=
EXTT11=
EXTT12=
EXTT13=
EXTT14=
EXTT15=
EXTT16=
EXTT17=
EXTT18=
EXTT19=
EXTT20=
EXTT21=
EXTT22=
PLAYORDER=
